<?xml version="1.0" encoding="utf-8"?>
<!-- Generator: Adobe Illustrator 24.3.0, SVG Export Plug-In . SVG Version: 6.00 Build 0)  -->
<svg version="1.1" id="logo-dark" xmlns="http://www.w3.org/2000/svg" xmlns:xlink="http://www.w3.org/1999/xlink" x="0px" y="0px"
	 viewBox="0 0 186.9 25.7" style="enable-background:new 0 0 186.9 25.7;" xml:space="preserve">
<g>
	<path d="M0.1,6.1V5h8v1.1L4.4,6.5H3.8L0.1,6.1z M4.4,22.6L8.1,23v1.1h-8V23l3.7-0.4H4.4z M2.8,13.8c0-3,0-5.9-0.1-8.9h2.7
		c-0.1,2.9-0.1,5.9-0.1,8.9V16c0,2.2,0,5.2,0.1,8.1H2.7c0.1-2.9,0.1-5.9,0.1-8.9V13.8z M4,17.2L14.1,5h1.7L4,19.1V17.2z M9.3,11.7
		l6.9,12.5h-2.7L7.8,13.5L9.3,11.7z M10.4,23l3.4-0.4h0.4l3.4,0.4v1.1h-7.3V23z M10.7,6.1V5h6.6v1.1l-3.2,0.4l-0.6,0.1L10.7,6.1z"/>
	<path d="M19.1,6.1V5h8v1.1l-3.7,0.4h-0.6L19.1,6.1z M23.4,22.6l3.7,0.4v1.1h-8V23l3.7-0.4H23.4z M21.9,13.8c0-3,0-5.9-0.1-8.9h2.8
		c-0.1,2.9-0.1,5.9-0.1,8.9v0.9c0,3.5,0,6.5,0.1,9.5h-2.8c0.1-2.9,0.1-5.9,0.1-8.9V13.8z M23.2,15v-1.3h12V15H23.2z M31.2,6.1V5h8
		v1.1l-3.7,0.4h-0.6L31.2,6.1z M35.5,22.6l3.7,0.4v1.1h-8V23l3.7-0.4H35.5z M33.9,13.8c0-3,0-5.9-0.1-8.9h2.8
		c-0.1,2.9-0.1,5.9-0.1,8.9v1.4c0,3,0,5.9,0.1,8.9h-2.8c0.1-2.9,0.1-5.9,0.1-9.5V13.8z"/>
	<path d="M58.7,14.6c0,6.3-4.3,10-8.7,10s-8.8-3.5-8.8-10c0-6.3,4.4-10,8.8-10S58.7,8,58.7,14.6z M50,23.2c4,0,5.7-4.3,5.7-8.6
		S54,6,50,6s-5.8,4.3-5.8,8.6S45.9,23.2,50,23.2z"/>
	<path d="M59.1,23l2.9-0.4h0.6l3.2,0.4v1.1h-6.6V23z M67.6,4.8h1.7l6.6,19.4h-2.7L67.5,7h0.7l-5.9,17.2H61L67.6,4.8z M64.3,16.6H72
		l0.5,1.3h-8.7L64.3,16.6z M69.9,23l3.6-0.4h0.6l3.6,0.4v1.1h-7.7V23z"/>
	<path d="M87.9,18.5c0,2.1,1.5,4.2,4.4,4.2c2,0,4-0.9,5-2.4l0.9,0.7c-1.2,1.8-3.2,3.4-6.6,3.4c-3.6,0-6.1-2.3-6.1-5.2
		c0-2.8,1.8-4.9,5.1-6.3l0.6,0.8C88.5,15,87.9,17,87.9,18.5z M89.7,13.2c-1.4-1.6-2-3.1-2-4.6c0-2.5,2-4,4.6-4
		c2.8,0,4.3,1.5,4.3,3.7c0,2.1-1.5,3.6-5,5.4l-0.5-0.8c2.1-1.3,3.6-2.7,3.6-4.5c0-1.7-1.1-2.7-2.5-2.7c-1.5,0-2.6,1.1-2.6,2.7
		c0,1,0.2,1.9,1.3,3.3c1.1,1.4,2,2.3,3.8,4.2c2.3,2.5,4,4.3,7,7.5l-1.4-0.7l3.7,0.5l-0.1,1.2c-0.8,0.2-1.4,0.3-2.2,0.3
		c-1.5,0-2.4-0.3-3.3-1.3c-1.9-2.1-3.3-3.7-4.8-5.4C92,15.9,91,14.7,89.7,13.2z M100.6,12.8h1.3c-0.7,3.3-2,5.9-3.7,8.3l-0.9-0.6
		C98.9,18.2,100,15.8,100.6,12.8z M100.9,13.4L98.2,13v-1.1h5.8V13l-2.5,0.4H100.9z"/>
	<path d="M113.3,6.4l1.3-1.4l-0.9,5.1H112l0.2-5.1h15.7l0.2,5.1h-1.6L125.6,5l1.3,1.4H113.3z M120.4,22.6l4,0.4v1.1h-8.6V23l4-0.4
		H120.4z M118.8,13.8c0-3,0-5.9-0.1-8.9h2.8c-0.1,2.9-0.1,5.9-0.1,8.9v1.4c0,3,0,5.9,0.1,8.9h-2.8c0.1-2.9,0.1-5.9,0.1-8.9V13.8z"/>
	<path d="M130,6.1V5h4v1.6h-0.3L130,6.1z M134.3,22.6l3.7,0.4v1.1h-8V23l3.7-0.4H134.3z M132.8,13.8c0-3,0-5.9-0.1-8.9h2.8
		c-0.1,3-0.1,5.8-0.1,9.2V15c0,3.2,0,6.2,0.1,9.2h-2.8c0.1-2.9,0.1-5.9,0.1-8.9V13.8z M134.1,14h3.6c3.1,0,4.6-1.7,4.6-4
		c0-2.4-1.3-3.7-4.3-3.7h-3.9V5h3.9c4.4,0,7,1.9,7,5c0,2.4-1.9,4.6-5.7,5l0.1-0.2c2.1,0.2,3.3,1.1,4.1,3.7l1.4,4.8l-0.9-0.5l3,0.3
		v1.1c-0.5,0.2-1.2,0.3-2.1,0.3c-1.8,0-2.6-0.5-2.9-1.8l-1.2-4.7c-0.6-2.3-1.6-2.7-4-2.7h-2.7V14z"/>
	<path d="M147.7,6.1V5h8v1.1L152,6.5h-0.6L147.7,6.1z M157.5,22.6c3.3,0,5-1.9,5-7V5h1.4v11.4c0,6-2.9,8.3-6.8,8.3
		c-4.2,0-7-2.3-7-7.7v-3.1c0-3,0-5.9-0.1-8.9h2.8c-0.1,2.9-0.1,5.9-0.1,8.9v2.3C152.7,21,154.5,22.6,157.5,22.6z M158.6,0.4
		c0.8-0.8,1.3-1.1,1.8-1.1c0.6,0,1.1,0.4,1.1,0.9c0,0.5-0.4,1-1.4,1.6c-1.2,0.7-2.4,1.3-3.6,1.9l-0.5-0.7
		C156.8,2.1,157.7,1.3,158.6,0.4z M162.6,6.5l-3.2-0.4V5h6.9v1.1l-3.2,0.4H162.6z"/>
	<path d="M182.8,21.3v1.6l-1.8,0.4l0.7-4.2h1.8l-0.1,4.2c-1.8,1-3.8,1.4-5.8,1.4c-5.8,0-9.7-4.2-9.7-10c0-5.7,4.1-10,9.7-10
		c1.5,0,3.6,0.3,5.5,1.4l0.1,4.2h-1.7l-0.7-4.2l1.8,0.4V8c-1.6-1.5-3.2-2-4.6-2c-3.9,0-7,3-7,8.6c0,5.6,2.8,8.6,6.8,8.6
		C179.3,23.2,181.2,22.7,182.8,21.3z"/>
</g>
</svg>
